<svg xmlns="http://www.w3.org/2000/svg" version="1.1" xmlns:xlink="http://www.w3.org/1999/xlink" xmlns:svgjs="http://svgjs.dev/svgjs" width="1000" height="1000" viewBox="0 0 1000 1000"><rect width="1000" height="1000" fill="#000000"></rect><g transform="matrix(0.7,0,0,0.7,149.57576631750015,397.0838969007942)"><svg viewBox="0 0 396 117" data-background-color="#e7ecef" preserveAspectRatio="xMidYMid meet" height="295" width="1000" xmlns="http://www.w3.org/2000/svg" xmlns:xlink="http://www.w3.org/1999/xlink"><g id="tight-bounds" transform="matrix(1,0,0,1,0.23999505467133986,-0.18918129488096724)"><svg viewBox="0 0 395.52 117.37836258976193" height="117.37836258976193" width="395.52"><g><svg viewBox="0 0 667.6164762439859 198.12835967704734" height="117.37836258976193" width="395.52"><g><rect width="8.319934545764298" height="144.0803194467674" x="241.99660833234645" y="27.024020115139976" fill="#ffffff" opacity="1" stroke-width="0" stroke="transparent" fill-opacity="1" class="rect-o-0" data-fill-palette-color="primary" rx="1%" id="o-0" data-palette-color="#000000"></rect></g><g transform="matrix(1,0,0,1,272.0964762439859,27.382428869982675)"><svg viewBox="0 0 395.52 143.363501937082" height="143.363501937082" width="395.52"><g><svg viewBox="0 0 395.52 143.363501937082" height="143.363501937082" width="395.52"><g><svg viewBox="0 0 395.52 92.25814299579424" height="92.25814299579424" width="395.52"><g transform="matrix(1,0,0,1,0,0)"><svg width="395.52" viewBox="4.050000190734863 -35.29999923706055 154.5399932861328 36.04999923706055" height="92.25814299579424" data-palette-color="#000000"><g class="undefined-text-0" data-fill-palette-color="primary" id="text-0"><path d="M4.05-34.55L10.65-34.55 10.65 0 4.05 0 4.05-34.55ZM28.7-35.3Q32.35-35.3 35.05-34.25 37.75-33.2 40.1-31.05L40.1-31.05 36.85-27.3Q35-28.85 33.12-29.55 31.25-30.25 29.1-30.25L29.1-30.25Q26.7-30.25 25.22-29.18 23.75-28.1 23.75-26.15L23.75-26.15Q23.75-24.85 24.32-24 24.9-23.15 26.4-22.4 27.9-21.65 30.85-20.75L30.85-20.75Q35.95-19.15 38.52-16.78 41.1-14.4 41.1-9.85L41.1-9.85Q41.1-6.75 39.52-4.35 37.95-1.95 35-0.6 32.05 0.75 28 0.75L28 0.75Q24.05 0.75 20.92-0.53 17.8-1.8 15.55-4L15.55-4 18.95-7.8Q20.95-6.1 23.1-5.23 25.25-4.35 27.85-4.35L27.85-4.35Q30.7-4.35 32.45-5.7 34.2-7.05 34.2-9.5L34.2-9.5Q34.2-11 33.6-11.98 33-12.95 31.55-13.73 30.1-14.5 27.35-15.35L27.35-15.35Q21.85-17.05 19.4-19.45 16.95-21.85 16.95-25.75L16.95-25.75Q16.95-28.6 18.45-30.75 19.95-32.9 22.62-34.1 25.3-35.3 28.7-35.3L28.7-35.3ZM43.3-34.55L68.95-34.55 68.25-29.3 59.25-29.3 59.25 0 52.6 0 52.6-29.3 43.3-29.3 43.3-34.55ZM86.49-35.3Q91.14-35.3 94.54-33.2 97.94-31.1 99.77-27.05 101.59-23 101.59-17.3L101.59-17.3Q101.59-11.65 99.74-7.6 97.89-3.55 94.49-1.4 91.09 0.75 86.49 0.75L86.49 0.75Q81.84 0.75 78.44-1.35 75.04-3.45 73.19-7.5 71.34-11.55 71.34-17.25L71.34-17.25Q71.34-22.85 73.19-26.93 75.04-31 78.47-33.15 81.89-35.3 86.49-35.3L86.49-35.3ZM86.49-30.25Q82.49-30.25 80.39-27.13 78.29-24 78.29-17.25L78.29-17.25Q78.29-4.3 86.49-4.3L86.49-4.3Q90.49-4.3 92.57-7.4 94.64-10.5 94.64-17.3L94.64-17.3Q94.64-24.05 92.57-27.15 90.49-30.25 86.49-30.25L86.49-30.25ZM126.24 0L118.59-13.85 114.39-13.85 114.39 0 107.79 0 107.79-34.55 118.09-34.55Q131.79-34.55 131.79-24.4L131.79-24.4Q131.79-20.95 130.09-18.7 128.39-16.45 124.79-15.05L124.79-15.05 133.84 0 126.24 0ZM114.39-29.75L114.39-18.6 118.49-18.6Q121.64-18.6 123.27-19.98 124.89-21.35 124.89-24.4L124.89-24.4Q124.89-27.2 123.22-28.48 121.54-29.75 117.94-29.75L117.94-29.75 114.39-29.75ZM138.34-34.55L158.39-34.55 157.69-29.65 144.94-29.65 144.94-20 156.04-20 156.04-15.1 144.94-15.1 144.94-4.95 158.59-4.95 158.59 0 138.34 0 138.34-34.55Z" fill="#ffffff" data-fill-palette-color="primary"></path></g></svg></g></svg></g><g transform="matrix(1,0,0,1,0,114.03807636166937)"><svg viewBox="0 0 232.20979200000002 29.325425575412638" height="29.325425575412638" width="232.20979200000002"><g transform="matrix(1,0,0,1,0,0)"><svg width="232.20979200000002" viewBox="2.490000009536743 -38.09000015258789 386.02001953125 48.76000213623047" height="29.325425575412638" data-palette-color="#274c77"><path d="M17.33 0.51L17.33 0.51Q13.96 0.51 11.23-0.78 8.5-2.08 6.54-4.47 4.59-6.86 3.54-10.17 2.49-13.48 2.49-17.53L2.49-17.53 2.49-17.99Q2.49-22.05 3.53-25.35 4.57-28.66 6.52-31.07 8.47-33.47 11.21-34.77 13.94-36.06 17.31-36.06L17.31-36.06Q20.75-36.06 23.5-34.77 26.25-33.47 28.19-31.07 30.13-28.66 31.14-25.35 32.15-22.05 32.15-17.99L32.15-17.99 32.15-17.53Q32.15-13.48 31.14-10.17 30.13-6.86 28.2-4.47 26.27-2.08 23.52-0.78 20.78 0.51 17.33 0.51ZM17.33-2.05L17.33-2.05Q21.19-2.05 23.84-3.98 26.49-5.91 27.86-9.4 29.22-12.89 29.22-17.53L29.22-17.53 29.22-18.04Q29.22-22.68 27.84-26.15 26.46-29.61 23.8-31.56 21.14-33.5 17.31-33.5L17.31-33.5Q13.62-33.5 10.96-31.56 8.3-29.61 6.87-26.14 5.44-22.66 5.44-18.04L5.44-18.04 5.44-17.53Q5.44-12.89 6.87-9.4 8.3-5.91 10.97-3.98 13.65-2.05 17.33-2.05ZM47.68 0L36.79 0 36.79-2.12 40.77-2.44 40.77-23.95 36.79-24.27 36.79-26.42 43.36-26.42 43.6-21.68Q44.87-24.17 47.02-25.54 49.17-26.9 52.15-26.9L52.15-26.9Q56.44-26.9 58.69-24.28 60.94-21.66 60.94-16.06L60.94-16.06 60.94-2.44 64.91-2.12 64.91 0 54.03 0 54.03-2.12 58.01-2.44 58.01-16.04Q58.01-20.63 56.32-22.51 54.64-24.39 51.51-24.39L51.51-24.39Q48.24-24.39 46.34-22.56 44.43-20.73 43.7-17.77L43.7-17.77 43.7-2.44 47.68-2.12 47.68 0ZM79.98 0L69.09 0 69.09-2.12 73.07-2.44 73.07-35.62 69.09-35.94 69.09-38.09 76-38.09 76-2.44 79.98-2.12 79.98 0ZM95.09 0L84.2 0 84.2-2.12 88.18-2.44 88.18-23.95 84.2-24.27 84.2-26.42 91.11-26.42 91.11-2.44 95.09-2.12 95.09 0ZM91.11-33.86L87.83-33.86 87.83-38.09 91.11-38.09 91.11-33.86ZM110.51 0L99.62 0 99.62-2.12 103.6-2.44 103.6-23.95 99.62-24.27 99.62-26.42 106.19-26.42 106.44-21.68Q107.7-24.17 109.85-25.54 112-26.9 114.98-26.9L114.98-26.9Q119.28-26.9 121.52-24.28 123.77-21.66 123.77-16.06L123.77-16.06 123.77-2.44 127.75-2.12 127.75 0 116.86 0 116.86-2.12 120.84-2.44 120.84-16.04Q120.84-20.63 119.16-22.51 117.47-24.39 114.35-24.39L114.35-24.39Q111.07-24.39 109.17-22.56 107.27-20.73 106.53-17.77L106.53-17.77 106.53-2.44 110.51-2.12 110.51 0ZM143.62 0.51L143.62 0.51Q140.22 0.51 137.63-1.14 135.05-2.78 133.58-5.7 132.12-8.62 132.12-12.43L132.12-12.43 132.12-13.77Q132.12-17.55 133.58-20.52 135.05-23.49 137.55-25.2 140.05-26.9 143.13-26.9L143.13-26.9Q146.37-26.9 148.68-25.51 150.99-24.12 152.22-21.59 153.45-19.07 153.45-15.65L153.45-15.65 153.45-13.16 135.14-13.16 135.09-12.08Q135.12-9.16 136.18-6.86 137.24-4.57 139.16-3.25 141.08-1.93 143.62-1.93L143.62-1.93Q146.11-1.93 148-2.72 149.89-3.52 151.33-4.88L151.33-4.88 152.58-2.88Q151.04-1.42 148.85-0.45 146.67 0.51 143.62 0.51ZM135.29-15.75L135.34-15.6 150.52-15.6 150.52-16.33Q150.52-18.65 149.63-20.5 148.74-22.34 147.09-23.39 145.45-24.44 143.13-24.44L143.13-24.44Q141.03-24.44 139.34-23.3 137.66-22.17 136.6-20.2 135.53-18.24 135.29-15.75L135.29-15.75ZM182.75 0.51L182.75 0.51Q179.69 0.51 176.65-0.42 173.62-1.34 170.78-3.3L170.78-3.3 170.78-10.18 173.22-10.18 173.59-4.64Q175.74-3.3 178.06-2.64 180.38-1.98 182.75-1.98L182.75-1.98Q185.55-1.98 187.64-2.84 189.73-3.71 190.89-5.26 192.05-6.81 192.05-8.84L192.05-8.84Q192.05-10.79 191.11-12.27 190.17-13.75 188.06-14.87 185.94-15.99 182.33-16.92L182.33-16.92Q178.45-17.92 176-19.26 173.54-20.61 172.38-22.5 171.22-24.39 171.22-27L171.22-27Q171.22-29.66 172.64-31.7 174.05-33.74 176.61-34.9 179.16-36.06 182.55-36.06L182.55-36.06Q186.14-36.06 188.96-34.99 191.78-33.91 193.73-32.23L193.73-32.23 193.73-25.88 191.32-25.88 190.95-30.91Q189.41-32.15 187.31-32.86 185.21-33.57 182.55-33.57L182.55-33.57Q179.94-33.57 178.06-32.7 176.18-31.84 175.17-30.37 174.15-28.91 174.15-27.05L174.15-27.05Q174.15-25.27 174.96-23.91 175.76-22.56 177.74-21.52 179.72-20.48 183.28-19.53L183.28-19.53Q189.07-18.04 192.02-15.52 194.98-12.99 194.98-8.89L194.98-8.89Q194.98-6.05 193.43-3.94 191.88-1.83 189.12-0.66 186.36 0.51 182.75 0.51ZM209.57 0L198.69 0 198.69-2.12 202.67-2.44 202.67-35.62 198.69-35.94 198.69-38.09 205.6-38.09 205.6-21.8Q206.89-24.22 209.07-25.56 211.26-26.9 214.21-26.9L214.21-26.9Q218.39-26.9 220.62-24.33 222.86-21.75 222.86-16.28L222.86-16.28 222.86-2.44 226.84-2.12 226.84 0 215.95 0 215.95-2.12 219.93-2.44 219.93-16.33Q219.93-20.65 218.24-22.52 216.56-24.39 213.55-24.39L213.55-24.39Q210.33-24.39 208.37-22.58 206.4-20.78 205.6-17.9L205.6-17.9 205.6-2.44 209.57-2.12 209.57 0ZM242.6 0.51L242.6 0.51Q239.04 0.51 236.42-1.18 233.79-2.88 232.34-5.9 230.89-8.91 230.89-12.79L230.89-12.79 230.89-13.6Q230.89-17.48 232.34-20.48 233.79-23.49 236.42-25.2 239.04-26.9 242.56-26.9L242.56-26.9Q246.1-26.9 248.72-25.2 251.34-23.49 252.8-20.5 254.25-17.5 254.25-13.6L254.25-13.6 254.25-12.79Q254.25-8.89 252.8-5.88 251.34-2.88 248.72-1.18 246.1 0.51 242.6 0.51ZM242.6-1.93L242.6-1.93Q245.31-1.93 247.27-3.37 249.22-4.81 250.27-7.28 251.32-9.74 251.32-12.79L251.32-12.79 251.32-13.6Q251.32-16.63 250.27-19.09 249.22-21.56 247.26-23 245.29-24.44 242.56-24.44L242.56-24.44Q239.82-24.44 237.86-23 235.89-21.56 234.85-19.09 233.82-16.63 233.82-13.6L233.82-13.6 233.82-12.79Q233.82-9.72 234.85-7.26 235.89-4.81 237.86-3.37 239.82-1.93 242.6-1.93ZM268.73 10.16L257.84 10.16 257.84 8.01 261.72 7.69 261.72-23.95 257.74-24.27 257.74-26.42 264.16-26.42 264.53-22.39Q265.84-24.54 267.93-25.72 270.02-26.9 272.85-26.9L272.85-26.9Q276.02-26.9 278.31-25.18 280.59-23.46 281.8-20.34 283.01-17.21 283.01-12.99L283.01-12.99 283.01-12.48Q283.01-8.52 281.8-5.62 280.59-2.71 278.33-1.1 276.07 0.51 272.92 0.51L272.92 0.51Q270.12 0.51 268.03-0.54 265.94-1.59 264.65-3.47L264.65-3.47 264.65 7.69 268.73 8.01 268.73 10.16ZM272.24-1.93L272.24-1.93Q276.07-1.93 278.06-4.81 280.05-7.69 280.05-12.48L280.05-12.48 280.05-12.99Q280.05-16.36 279.15-18.92 278.25-21.48 276.5-22.94 274.76-24.39 272.19-24.39L272.19-24.39Q269.19-24.39 267.37-22.92 265.55-21.46 264.65-19.21L264.65-19.21 264.65-6.62Q265.58-4.44 267.48-3.19 269.38-1.93 272.24-1.93ZM297.48 10.16L286.59 10.16 286.59 8.01 290.48 7.69 290.48-23.95 286.5-24.27 286.5-26.42 292.92-26.42 293.28-22.39Q294.6-24.54 296.69-25.72 298.78-26.9 301.61-26.9L301.61-26.9Q304.78-26.9 307.06-25.18 309.35-23.46 310.56-20.34 311.76-17.21 311.76-12.99L311.76-12.99 311.76-12.48Q311.76-8.52 310.56-5.62 309.35-2.71 307.09-1.1 304.83 0.51 301.68 0.51L301.68 0.51Q298.87 0.51 296.79-0.54 294.7-1.59 293.41-3.47L293.41-3.47 293.41 7.69 297.48 8.01 297.48 10.16ZM301-1.93L301-1.93Q304.83-1.93 306.82-4.81 308.81-7.69 308.81-12.48L308.81-12.48 308.81-12.99Q308.81-16.36 307.91-18.92 307-21.48 305.26-22.94 303.51-24.39 300.95-24.39L300.95-24.39Q297.95-24.39 296.13-22.92 294.31-21.46 293.41-19.21L293.41-19.21 293.41-6.62Q294.33-4.44 296.24-3.19 298.14-1.93 301-1.93ZM326.83 0L315.94 0 315.94-2.12 319.92-2.44 319.92-23.95 315.94-24.27 315.94-26.42 322.85-26.42 322.85-2.44 326.83-2.12 326.83 0ZM322.85-33.86L319.57-33.86 319.57-38.09 322.85-38.09 322.85-33.86ZM342.25 0L331.36 0 331.36-2.12 335.34-2.44 335.34-23.95 331.36-24.27 331.36-26.42 337.93-26.42 338.18-21.68Q339.45-24.17 341.59-25.54 343.74-26.9 346.72-26.9L346.72-26.9Q351.02-26.9 353.26-24.28 355.51-21.66 355.51-16.06L355.51-16.06 355.51-2.44 359.49-2.12 359.49 0 348.6 0 348.6-2.12 352.58-2.44 352.58-16.04Q352.58-20.63 350.9-22.51 349.21-24.39 346.09-24.39L346.09-24.39Q342.81-24.39 340.91-22.56 339.01-20.73 338.27-17.77L338.27-17.77 338.27-2.44 342.25-2.12 342.25 0ZM374.7 10.67L374.7 10.67Q372.77 10.67 370.62 10.21 368.47 9.74 366.86 8.96L366.86 8.96 367.64 6.52Q369.2 7.28 370.95 7.69 372.69 8.11 374.65 8.11L374.65 8.11Q378.41 8.11 380.3 5.87 382.19 3.64 382.19-0.34L382.19-0.34 382.19-3.56Q380.87-1.64 378.81-0.56 376.75 0.51 374.01 0.51L374.01 0.51Q370.84 0.51 368.57-1.1 366.3-2.71 365.08-5.63 363.86-8.54 363.86-12.48L363.86-12.48 363.86-12.99Q363.86-17.21 365.08-20.34 366.3-23.46 368.58-25.18 370.86-26.9 374.06-26.9L374.06-26.9Q376.89-26.9 378.97-25.68 381.04-24.46 382.34-22.27L382.34-22.27 382.66-26.42 385.12-26.42 385.12-0.34Q385.12 3.05 383.89 5.52 382.66 7.98 380.31 9.33 377.97 10.67 374.7 10.67ZM374.55-2L374.55-2Q377.43-2 379.32-3.32 381.22-4.64 382.19-6.93L382.19-6.93 382.19-19.02Q381.26-21.34 379.46-22.86 377.65-24.39 374.6-24.39L374.6-24.39Q372.04-24.39 370.3-22.94 368.57-21.48 367.69-18.92 366.81-16.36 366.81-12.99L366.81-12.99 366.81-12.48Q366.81-7.69 368.75-4.85 370.69-2 374.55-2ZM388.51-24.29L384.54-23.9 383.58-26.42 388.51-26.42 388.51-24.29Z" opacity="1" transform="matrix(1,0,0,1,0,0)" fill="#ffffff" class="undefined-text-1" data-fill-palette-color="secondary" id="text-1"></path></svg></g></svg></g></svg></g></svg></g><g><svg viewBox="0 0 220.21667496647134 198.12835967704734" height="198.12835967704734" width="220.21667496647134"><g><svg xmlns="http://www.w3.org/2000/svg" xmlns:xlink="http://www.w3.org/1999/xlink" version="1.1" x="0" y="0" viewBox="13.320999145507812 17 73.35800170898438 66" enable-background="new 0 0 100 100" xml:space="preserve" height="198.12835967704734" width="220.21667496647134" class="icon-icon-0" data-fill-palette-color="accent" id="icon-0"><g fill="#274c77" data-fill-palette-color="accent"><polygon points="74.11,17 26.046,17 19,20.067 19,30 80,30 80,20.067  " fill="#ffffff" data-fill-palette-color="accent"></polygon><path d="M86.679 56l-9.764-25H70.98l7.479 25h0.003c0.003 0 0.007 0.354 0.015 0.441-0.26 2.004-1.973 3.466-4.049 3.466-2.167 0-3.847-1.907-3.983-3.907l0 0-5.467-25h-5.934l3.183 25 0 0c-0.137 2-1.865 3.898-4.032 3.898-2.22 0-4.08-1.898-4.136-3.898l0 0-1.063-25H50.05h-0.017-2.944l-1.07 25h0.017c-0.137 2-1.907 3.898-4.074 3.898-2.221 0-4.113-1.898-4.169-3.898l0 0 3.163-25h-5.934l-5.468 25 0 0c-0.137 2-1.817 3.996-3.984 3.996-2.077 0-3.79-1.638-4.049-3.645C21.528 56.265 21.533 56 21.535 56h0.005l7.48-25h-5.935l-9.764 25 0 0c0.056 2 1.57 4.154 3.792 4.154 0.821 0 1.887-0.067 1.887-0.484V83h61V59.769c2 0.356 1.552 0.386 2.308 0.386C84.528 60.154 86.622 58 86.679 56L86.679 56z" fill="#ffffff" data-fill-palette-color="accent"></path></g></svg></g></svg></g></svg></g><defs></defs></svg><rect width="395.52" height="117.37836258976193" fill="none" stroke="none" visibility="hidden"></rect></g></svg></g></svg>